<svg width="18" height="17" viewBox="0 0 18 17" fill="none" xmlns="http://www.w3.org/2000/svg">
<path d="M3.79785 10.4369C3.90599 10.437 4.01107 10.4738 4.09473 10.5424C4.17842 10.6109 4.2355 10.7068 4.25684 10.8129L4.33398 11.1927C4.42889 11.6601 4.65982 12.0889 4.99707 12.4261C5.33434 12.7634 5.76305 12.9944 6.23047 13.0892L6.61035 13.1664C6.71625 13.1877 6.81135 13.245 6.87988 13.3285C6.94847 13.4122 6.98626 13.5172 6.98633 13.6254C6.98633 13.7336 6.94849 13.8385 6.87988 13.9222C6.81132 14.0059 6.71639 14.064 6.61035 14.0853L6.23047 14.1625C5.76321 14.2573 5.33428 14.4875 4.99707 14.8246C4.65973 15.1619 4.42884 15.5914 4.33398 16.059L4.25684 16.4379C4.23557 16.544 4.17838 16.6397 4.09473 16.7084C4.01106 16.7769 3.90601 16.8147 3.79785 16.8148C3.68954 16.8148 3.58377 16.777 3.5 16.7084C3.41639 16.6397 3.35915 16.5439 3.33789 16.4379L3.26074 16.059C3.16589 15.5915 2.93593 15.1619 2.59863 14.8246C2.26134 14.4873 1.83173 14.2574 1.36426 14.1625L0.985352 14.0853C0.879156 14.064 0.783491 14.006 0.714844 13.9222C0.646267 13.8385 0.608398 13.7336 0.608398 13.6254C0.608462 13.5172 0.646254 13.4122 0.714844 13.3285C0.783479 13.2448 0.879245 13.1877 0.985352 13.1664L1.36426 13.0892C1.83176 12.9944 2.26132 12.7635 2.59863 12.4261C2.93568 12.089 3.16587 11.66 3.26074 11.1927L3.33789 10.8129C3.35922 10.7068 3.41632 10.6109 3.5 10.5424C3.58377 10.4737 3.68954 10.4369 3.79785 10.4369ZM11.8066 0.903687C11.9489 0.90371 12.0872 0.953157 12.1973 1.04333C12.3072 1.13352 12.3822 1.25939 12.4102 1.3988L12.6934 2.79431C12.8298 3.46639 13.1616 4.08379 13.6465 4.56873C14.1315 5.05358 14.7488 5.38449 15.4209 5.52087L16.8164 5.80408C16.9555 5.83261 17.0801 5.90888 17.1699 6.01892C17.2598 6.12903 17.3096 6.26646 17.3096 6.40857C17.3095 6.55068 17.2598 6.68812 17.1699 6.79822C17.0801 6.90826 16.9556 6.98454 16.8164 7.01306L15.4209 7.29529C14.7488 7.43168 14.1315 7.76351 13.6465 8.24841C13.1615 8.73338 12.8298 9.35069 12.6934 10.0228L12.4102 11.4183C12.3822 11.5578 12.3072 11.6836 12.1973 11.7738C12.0872 11.864 11.9489 11.9134 11.8066 11.9135C11.6643 11.9135 11.5261 11.864 11.416 11.7738C11.306 11.6836 11.2311 11.5578 11.2031 11.4183L10.9199 10.0228C10.7836 9.35062 10.4518 8.73342 9.9668 8.24841C9.48176 7.76344 8.86461 7.43158 8.19238 7.29529L6.79688 7.01306C6.65764 6.98457 6.53225 6.90832 6.44238 6.79822C6.3527 6.68818 6.30373 6.55054 6.30371 6.40857C6.30371 6.26661 6.35273 6.12897 6.44238 6.01892C6.53224 5.90882 6.65765 5.83258 6.79688 5.80408L8.19238 5.52087C8.86456 5.38459 9.48178 5.05365 9.9668 4.56873C10.4518 4.08376 10.7836 3.46646 10.9199 2.79431L11.2031 1.3988C11.2311 1.25934 11.306 1.13352 11.416 1.04333C11.5261 0.953135 11.6643 0.903687 11.8066 0.903687Z" fill="url(#paint0_linear_10602_3171)"/>
<defs>
<linearGradient id="paint0_linear_10602_3171" x1="17.3093" y1="8.85918" x2="0.445128" y2="6.9157" gradientUnits="userSpaceOnUse">
<stop stop-color="#8D65E9"/>
<stop offset="0.483" stop-color="#5391E4"/>
<stop offset="1" stop-color="#6BCD94"/>
</linearGradient>
</defs>
</svg>
